<?xml version="1.0" encoding="utf-8"?>
<!-- Generator: Adobe Illustrator 23.1.0, SVG Export Plug-In . SVG Version: 6.00 Build 0)  -->
<svg version="1.1" id="Слой_1" xmlns="http://www.w3.org/2000/svg" xmlns:xlink="http://www.w3.org/1999/xlink" x="0px" y="0px"
	 viewBox="0 0 140 269" style="enable-background:new 0 0 140 269;" xml:space="preserve">
<g>
	<g>
		<path d="M71.49,153.83c-0.41,4.67,2.87,29.36,4.56,39.05c0.8,4.59,3.01,12.06,2.22,16.03c-1.13,5.53-1.46,12.69-0.84,16.86
			c0.39,2.53,1.63,14.21-0.14,18.47c-0.93,2.24-2.63,13.71-2.63,13.71c-4.43,10.81-1.93,10.28-1.93,10.28
			c1.37,1.63,3.72,0.13,3.72,0.13c1.79,1.1,3.03-0.26,3.03-0.26c1.54,1.23,3.33-0.15,3.33-0.15c1.93,0.97,3.72-0.82,3.72-0.82
			c1.11,0.54,1.38-0.14,1.38-0.14c3.32-0.21-1.85-10.49-1.85-10.49c-1.24-9.24,1.23-14.38,1.23-14.38
			c8.09-23.21,8.5-29.36,5.27-38.11c-0.91-2.52-1.14-3.52-0.72-4.62c0.97-2.53,0.26-12.71,1.44-16.75
			c2.28-7.79,4.53-27.56,5.7-36.78c1.58-12.42-5.58-29.08-5.58-29.08c-1.57-6.78,0.73-30.92,0.73-30.92
			c3.21,4.83,3.09,13.35,3.09,13.35c-0.51,8.94,7.47,22.6,7.47,22.6c3.83,5.65,5.28,11,5.28,11.4c0,1.63-0.37,5.56-0.37,5.56
			l0.15,3.43c0.07,0.87,0.57,3.88,0.49,5.33c-0.6,8.94,0.87,7.26,0.87,7.26c1.24,0,2.6-7.2,2.6-7.2c0,1.86-0.47,7.41,0.57,9.51
			c1.24,2.5,2.15-0.43,2.17-1.02c0.33-11.39,1.04-8.4,1.04-8.4c0.69,9.24,1.54,11.32,3.05,10.6c1.15-0.53,0.1-11.09,0.1-11.09
			c1.97,6.27,3.46,7.27,3.46,7.27c3.25,2.21,1.24-3.89,0.79-5.09c-2.4-6.41-2.48-8.63-2.48-8.63c3,5.76,5.27,5.55,5.27,5.55
			c2.93-0.9-2.56-9.06-5.78-12.97c-1.64-1.99-3.76-4.66-4.37-6.24c-1-2.68-1.76-11.31-1.76-11.31c-0.3-10.18-2.9-14.59-2.9-14.59
			c-4.45-6.88-5.28-19.73-5.28-19.73l-0.2-21.68c-1.56-14.79-12.83-14.9-12.83-14.9c-11.39-1.64-12.98-5.2-12.98-5.2
			c-2.41-3.36-1.03-9.79-1.03-9.79c2-1.57,2.77-5.75,2.77-5.75c3.32-2.46,3.16-6.07,1.63-6.03c-1.23,0.03-0.95-0.96-0.95-0.96
			C86.05,0.92,71.14,0.09,71.14,0.09h-2.28c0,0-14.91,0.83-12.84,17.06c0,0,0.28,0.99-0.96,0.96c-1.53-0.04-1.67,3.57,1.64,6.03
			c0,0,0.77,4.18,2.77,5.75c0,0,1.38,6.44-1.03,9.79c0,0-1.58,3.56-12.98,5.2c0,0-11.29,0.11-12.82,14.9l-0.21,21.68
			c0,0-0.82,12.84-5.29,19.73c0,0-2.59,4.42-2.89,14.59c0,0-0.76,8.62-1.76,11.31c-0.61,1.58-2.72,4.24-4.38,6.24
			c-3.25,3.9-8.7,12.04-5.78,12.97c0,0,2.28,0.21,5.27-5.55c0,0-0.06,2.21-2.46,8.63c-0.47,1.19-2.48,7.29,0.77,5.09
			c0,0,1.51-1,3.46-7.27c0,0-1.05,10.56,0.12,11.09c1.53,0.72,2.36-1.36,3.05-10.6c0,0,0.71-2.98,1.03,8.4
			c0.02,0.59,0.91,3.52,2.15,1.02c1.05-2.1,0.58-7.64,0.58-9.51c0,0,1.35,7.2,2.61,7.2c0,0,1.48,1.68,0.87-7.26
			c-0.1-1.46,0.43-4.46,0.5-5.33l0.14-3.43c0,0-0.37-3.93-0.37-5.56c0-0.41,1.45-5.75,5.28-11.4c0,0,7.97-13.67,7.46-22.6
			c0,0-0.11-8.52,3.1-13.35c0,0,2.28,24.15,0.73,30.92c0,0-7.17,16.65-5.59,29.08c1.16,9.25,3.41,28.98,5.7,36.78
			c1.19,4.03,0.49,14.21,1.44,16.75c0.43,1.1,0.2,2.12-0.72,4.62c-3.22,8.75-2.81,14.91,5.28,38.11c0,0,2.49,5.14,1.23,14.38
			c0,0-5.17,10.29-1.86,10.49c0,0,0.26,0.68,1.38,0.14c0,0,1.79,1.79,3.72,0.82c0,0,1.79,1.38,3.32,0.15c0,0,1.23,1.36,3.02,0.26
			c0,0,2.35,1.53,3.74-0.13c0,0,2.48,0.53-1.93-10.28c0,0-1.69-11.46-2.62-13.71c-1.78-4.27-0.52-15.97-0.14-18.47
			c0.61-4.19,0.28-11.33-0.83-16.86c-0.82-3.96,1.39-11.44,2.21-16.03c1.68-9.67,4.97-34.37,4.56-39.05l1.36,0.46
			C70.87,154.29,71.49,153.83,71.49,153.83z"/>
	</g>
</g>
</svg>
