<?xml version="1.0" encoding="iso-8859-1"?>
<!-- Generator: Adobe Illustrator 19.0.0, SVG Export Plug-In . SVG Version: 6.00 Build 0)  -->
<svg version="1.1" id="Capa_1" xmlns="http://www.w3.org/2000/svg" xmlns:xlink="http://www.w3.org/1999/xlink" x="0px" y="0px"
	 viewBox="0 0 490.667 490.667" style="enable-background:new 0 0 490.667 490.667;" xml:space="preserve">
<path style="fill:#607D8B;" d="M309.333,117.333h-128c-5.891,0-10.667-4.776-10.667-10.667V64c0-17.673,14.327-32,32-32H288
	c17.673,0,32,14.327,32,32v42.667C320,112.558,315.224,117.333,309.333,117.333z M192,96h106.667V64
	c0-5.891-4.776-10.667-10.667-10.667h-85.333C196.776,53.333,192,58.109,192,64V96z"/>
<path style="fill:#455A64;" d="M32,96h426.667c17.673,0,32,14.327,32,32v298.667c0,17.673-14.327,32-32,32H32
	c-17.673,0-32-14.327-32-32V128C0,110.327,14.327,96,32,96z"/>
<circle style="fill:#ECEFF1;" cx="245.333" cy="277.333" r="117.333"/>
<path style="fill:#F44336;" d="M309.333,245.333h-32v-32c0-5.891-4.776-10.667-10.667-10.667H224
	c-5.891,0-10.667,4.776-10.667,10.667v32h-32c-5.891,0-10.667,4.776-10.667,10.667v42.667c0,5.891,4.776,10.667,10.667,10.667h32v32
	c0,5.891,4.776,10.667,10.667,10.667h42.667c5.891,0,10.667-4.776,10.667-10.667v-32h32c5.891,0,10.667-4.776,10.667-10.667V256
	C320,250.109,315.224,245.333,309.333,245.333z"/>
<g>
</g>
<g>
</g>
<g>
</g>
<g>
</g>
<g>
</g>
<g>
</g>
<g>
</g>
<g>
</g>
<g>
</g>
<g>
</g>
<g>
</g>
<g>
</g>
<g>
</g>
<g>
</g>
<g>
</g>
</svg>
