<svg id="Capa_1" enable-background="new 0 0 368.798 368.798" height="512" viewBox="0 0 368.798 368.798" width="512" xmlns="http://www.w3.org/2000/svg"><g><path d="m172.307 0h24.185v35.931h-24.185z" fill="#4d5c7d"/><path d="m125.492 48.715h117.814v26.258h-117.814z" fill="#474c5b"/><path d="m245.444 135.066-4.535-4.535c-4.295-4.295-6.709-10.121-6.709-16.196 0-4.392 1.263-8.691 3.638-12.386l8.36-13.004c2.375-3.695 3.638-7.994 3.638-12.387v-12.656c0-1.767-1.433-3.2-3.2-3.2h-62.238-62.237c-1.767 0-3.2 1.433-3.2 3.2v12.658c0 4.392 1.263 8.692 3.638 12.387l8.36 13.004c2.375 3.694 3.638 7.993 3.638 12.385v.002c0 6.074-2.413 11.9-6.708 16.195l-4.535 4.535c-4.295 4.295-6.708 10.121-6.708 16.196v173.164c0 3.279.704 6.519 2.064 9.502l9.777 21.447c3.722 8.164 11.869 13.404 20.841 13.404h35.071 35.072c8.972 0 17.119-5.239 20.84-13.403l9.778-21.448c1.36-2.983 2.064-6.224 2.064-9.502v-173.166c0-6.075-2.413-11.9-6.709-16.196z" fill="#ebf0f3"/><path d="m121.013 194.757v129.668c0 2.671.563 5.261 1.673 7.689l9.775 21.45c3.004 6.588 9.626 10.846 16.867 10.846h70.144c7.241 0 13.859-4.258 16.863-10.846l9.775-21.45c1.097-2.394 1.673-5.056 1.673-7.689v-129.668z" fill="#d5d6db" opacity=".5"/><path d="m171.71 368.798h-22.371c-9.001 0-17.128-5.243-20.841-13.414l-9.787-21.453c-1.354-2.971-2.054-6.248-2.054-9.525v-173.155c0-6.073 2.403-11.885 6.685-16.166l4.544-4.544c4.282-4.282 6.729-10.137 6.729-16.21 0-4.369-1.267-8.695-3.67-12.365l-8.346-13.02c-2.359-3.714-3.626-7.996-3.626-12.365v-12.673c0-1.791 1.442-3.19 3.19-3.19h22.371c-1.748 0-3.189 1.398-3.189 3.19v12.671c0 4.369 1.267 8.651 3.626 12.365l8.389 13.02c2.359 3.67 3.626 7.996 3.626 12.365 0 6.073-2.403 11.928-6.729 16.21l-4.5 4.544c-4.326 4.282-6.729 10.093-6.729 16.166v173.155c0 3.277.699 6.554 2.054 9.525l9.787 21.453c3.713 8.173 11.884 13.416 20.841 13.416z" fill="#d5d6db"/><path d="m245.569 32.572c-.802-4.505-4.719-7.786-9.295-7.786h-51.875-51.875c-4.576 0-8.493 3.281-9.295 7.786l-2.977 16.717c-.406 2.279 1.346 4.37 3.661 4.37h60.485 60.486c2.315 0 4.067-2.092 3.661-4.37z" fill="#4d5c7d"/></g></svg>